<svg width="285" height="83" fill="none" xmlns="http://www.w3.org/2000/svg"><path fill-rule="evenodd" clip-rule="evenodd" d="M36.636 6.657A6.611 6.611 0 0032.565.552a6.59 6.59 0 00-7.19 1.43 6.608 6.608 0 004.663 11.277 6.593 6.593 0 004.887-2.167L56.01 23.28c.19-.59.462-1.15.807-1.661a6.608 6.608 0 00-.36 6.753L34.073 47.177A6.591 6.591 0 0023.438 52.4a6.612 6.612 0 002.528 5.2 6.594 6.594 0 0010.086-2.488 6.611 6.611 0 00-.174-5.78l22.384-18.804a6.591 6.591 0 008.697-.556 6.61 6.61 0 00-2.138-10.773 6.59 6.59 0 00-7.408 1.659L36.324 8.665a6.611 6.611 0 00.312-2.008zm15.11 60.265a26.164 26.164 0 004.4-14.523h3.93a30.099 30.099 0 01-5.062 16.708 30.046 30.046 0 01-13.48 11.077A30.005 30.005 0 018.8 73.666a30.107 30.107 0 01-6.513-32.773 30.066 30.066 0 0111.062-13.498 30.013 30.013 0 0116.688-5.07v3.933a26.089 26.089 0 00-14.507 4.405 26.135 26.135 0 00-9.616 11.732 26.17 26.17 0 005.66 28.489 26.082 26.082 0 0028.455 5.667 26.117 26.117 0 0011.718-9.629zM72.683 52.4l1.976 4.926 1.99-4.926h2.438v8.153h-1.742v-5.709l-2.296 5.71h-.756l-2.296-5.71v5.71h-1.734V52.4h2.42zm10.205 0v5.268L86.66 52.4h1.778v8.153h-1.732v-5.464l-3.885 5.464H81.15V52.4h1.74zm7.87 0h3.806c1.772 0 2.735 1.214 2.735 2.63s-.976 2.627-2.735 2.627h-2.072v2.896h-1.734V52.4zm1.723 3.728h1.842c.682 0 1.196-.412 1.196-1.098 0-.687-.514-1.101-1.196-1.101H92.48v2.2zm10.251-.525h3.845V52.4h1.744v8.153h-1.744v-3.424h-3.845v3.424h-1.734V52.4h1.734v3.203zm6.969.88c0-2.454 1.796-4.215 4.247-4.215 2.474 0 4.259 1.758 4.259 4.215 0 2.458-1.807 4.215-4.259 4.215-2.451 0-4.247-1.76-4.247-4.215zm1.782 0c0 1.516.963 2.676 2.465 2.676 1.503 0 2.479-1.147 2.479-2.676 0-1.529-.976-2.675-2.479-2.675-1.502 0-2.465 1.16-2.465 2.675zm14.381-.812a1.805 1.805 0 01-1.043.678h-.003c.866.134 1.562.977 1.562 2.002 0 1.222-.817 2.202-2.369 2.202h-4.417V52.4h4.288c1.536 0 2.342 1.001 2.342 2.078.025.428-.103.85-.36 1.193zm-2.369-1.78h-2.172v1.774h2.172a.883.883 0 00.864-.536.884.884 0 000-.702.888.888 0 00-.864-.536zm-2.172 5.155h2.234v.008c.659 0 1.049-.35 1.049-.94 0-.51-.366-.952-1.049-.952h-2.234v1.884zm15.784 1.515h-1.745V52.4h1.745v8.16zm-7.221-5.265h2.075c1.756 0 2.734 1.2 2.734 2.63s-.965 2.627-2.734 2.627h-3.807V52.4h1.732v2.896zm0 3.728h1.841c.686 0 1.197-.425 1.197-1.098s-.511-1.1-1.197-1.1h-1.841v2.198zm16.386-6.624l-2.769 3.96 2.955 4.185h-2.079l-2.038-2.982-2.045 2.99h-2.068l2.957-4.18-2.771-3.973h2.046l1.881 2.789 1.845-2.789h2.086zM75.497 69.511a1.807 1.807 0 001.385-1.864c0-1.076-.806-2.078-2.344-2.078h-4.285v8.143h4.42c1.55 0 2.365-.98 2.365-2.2 0-1.017-.682-1.857-1.541-2.001zm-1.338-2.459h-2.178l.006 1.772h2.172a.867.867 0 00.954-.88.88.88 0 00-.954-.892zm-2.178 5.158h2.232v.01c.661 0 1.054-.355 1.054-.942 0-.514-.369-.952-1.054-.952H71.98v1.884zm6.111-2.557c0-2.458 1.793-4.216 4.248-4.216l.005-.002c2.466 0 4.262 1.768 4.262 4.215s-1.812 4.218-4.267 4.218-4.248-1.758-4.248-4.215zm1.788-.003c0 1.515.965 2.678 2.465 2.678s2.48-1.152 2.48-2.678-.98-2.675-2.48-2.675-2.465 1.16-2.465 2.675zm12.133-.142c.878-.171 1.731-.84 1.731-1.85 0-1.346-1.32-2.21-3.226-2.21-1.427 0-2.586.539-3.245 1.295l.866 1.077a3.251 3.251 0 012.207-.845c.93 0 1.662.317 1.662.966 0 .6-.697.867-1.662.867h-1.642v1.528h1.645c1.223 0 1.796.294 1.796.942 0 .65-.624 1.04-1.697 1.04a3.555 3.555 0 01-2.379-.932l-.903 1.163c.597.732 1.855 1.305 3.355 1.305 1.941 0 3.344-.99 3.344-2.392 0-1.208-1.05-1.856-1.852-1.954zm6.278-3.95l1.976 4.926 1.987-4.915h2.441v8.143h-1.745v-5.707l-2.296 5.707h-.756l-2.295-5.707v5.707H95.87v-8.153h2.42zm8.028 4.081c0-2.457 1.793-4.215 4.245-4.215 2.465 0 4.261 1.758 4.261 4.215 0 2.458-1.81 4.215-4.261 4.215-2.452 0-4.245-1.757-4.245-4.215zm1.779 0c0 1.516.965 2.678 2.466 2.678 1.502 0 2.478-1.152 2.478-2.678s-.978-2.675-2.478-2.675c-1.501 0-2.466 1.16-2.466 2.675zm16.212-4.08h2.151l-3.243 3.846 3.442 4.307h-2.124l-2.466-3.257-.341.417v2.84h-1.745v-2.848l-.341-.417-2.468 3.265h-2.122l3.439-4.318-3.226-3.825h2.134l2.589 3.273V65.57h1.745v3.263l2.576-3.273zm5.205 3.2h3.858l-.011-3.19h1.742v8.143h-1.742v-3.413h-3.847v3.413h-1.732v-8.143h1.732v3.19zm6.979.88c0-2.457 1.793-4.215 4.248-4.215 2.462 0 4.258 1.758 4.258 4.215 0 2.458-1.804 4.215-4.258 4.215-2.455 0-4.248-1.757-4.248-4.215zm1.78 0c0 1.516.965 2.678 2.468 2.678l-.011.02c1.5 0 2.476-1.153 2.476-2.679 0-1.526-.965-2.675-2.476-2.675-1.511 0-2.457 1.14-2.457 2.656zm13.049-2.328a2.201 2.201 0 00-1.121-.329l.006-.007c-1.473 0-2.549 1.135-2.549 2.675 0 1.54 1.076 2.678 2.549 2.678a2.175 2.175 0 001.917-1.187l1.484.73a3.754 3.754 0 01-3.407 2.002c-2.449 0-4.331-1.712-4.331-4.215s1.893-4.215 4.331-4.215a3.72 3.72 0 013.407 1.992l-1.49.732a2.197 2.197 0 00-.796-.856zm5.372-.215h-2.374l-.005-1.527h6.493v1.527h-2.369v6.616h-1.745v-6.616zm11.114 6.616h-5.761v-8.143h5.764v1.527h-4.033v1.722h3.939v1.53h-3.941v1.835h4.032v1.529zm6.504-8.809a2.634 2.634 0 01-1.205.279h.016a2.686 2.686 0 01-2.15-1.077l.683-.573a1.775 1.775 0 001.458.758 1.782 1.782 0 001.459-.758l.685.573a2.643 2.643 0 01-.946.798zm-3.097 5.926l3.763-5.268 1.791.008v8.143h-1.734v-5.464l-3.882 5.464h-1.672v-8.143h1.734v5.26zm25.18-62.315h1.124v65.209h-1.124V8.513zm25.484 60.28h-2.089v-2.82h-2.449v7.622h2.449v-2.708h2.089v2.708h2.449v-7.623h-2.449v2.821zm22.747 0h-2.094v-2.82h-2.447v7.622h2.447v-2.708h2.094v2.708h2.447v-7.623h-2.447v2.821zm37.402-.595h-1.175v-2.226h-2.446v7.623h3.621c1.586 0 2.885-.872 2.885-2.422v-.539c0-1.556-1.299-2.422-2.885-2.422v-.014zm-.25 3.534h-.925V70.07h.826a.78.78 0 01.849.837.763.763 0 01-.198.574.778.778 0 01-.552.252zm-15.537-1.014h2.762v-1.815h-2.762v-.928h3.012v-1.99h-5.461v7.623h5.689V71.62h-3.226l-.014-.901zm-3.035-4.732h-2.651l-1.293 2.88h-.607v-2.894h-2.447v7.623h2.447v-2.708h.602l1.323 2.708h2.812l-2.076-3.844 1.89-3.765zm-33.961-.127h-1.201a2.791 2.791 0 00-2.691 1.768 2.786 2.786 0 00-.194 1.12v2.13a2.784 2.784 0 00.816 2.07 2.78 2.78 0 002.069.812h1.201a2.785 2.785 0 002.686-1.764 2.8 2.8 0 00.194-1.119v-2.129c0-1.849-1.296-2.888-2.88-2.888zm.42 5.187a.916.916 0 01-.914.918h-.213a.915.915 0 01-.914-.918v-2.471a.919.919 0 01.914-.92h.207a.919.919 0 01.914.92l.006 2.471zm41.62-1.025c0 1.16-.304 1.33-.742 1.531a2.306 2.306 0 01-.707.067v1.99h.96c2.062 0 2.823-1.196 2.855-3.89v-1.744h1.371v5.633h2.452v-7.636h-6.184l-.005 4.049zm-34.705-4.038h-3.619v7.623h2.446v-1.868h1.173c1.586 0 2.884-.875 2.884-2.423v-.89c0-1.556-1.298-2.423-2.884-2.423v-.02zm.5 3.071a.79.79 0 01-.521.767.776.776 0 01-.326.04h-.826v-2.018h.923a.765.765 0 01.544.246.764.764 0 01.206.561v.404zm13.386.783v-3.865h-2.321v7.623h2.151l2.517-3.828v3.828h2.317v-7.623h-2.151l-2.513 3.865zm11.598-45.62V8.777C274.73 8.778 285 19.022 285 31.658c0 12.634-10.27 22.878-22.935 22.878l-22.936-15.428V54.55a22.887 22.887 0 01-21.174-14.111 22.962 22.962 0 01-1.756-8.768c0-12.638 10.267-22.88 22.93-22.88l22.936 15.426zm-37.29 18.284a17.945 17.945 0 009.44 6.446V14.366a17.945 17.945 0 00-9.44 6.446 17.976 17.976 0 000 21.69zm14.354-27.794v18.478l22.936 15.429V30.134l-22.936-15.426zm27.855 34.24a17.923 17.923 0 007.821-4.575 17.955 17.955 0 004.696-17.25 17.962 17.962 0 00-4.56-8.047 17.918 17.918 0 00-7.957-4.705v34.577z" fill="#FEED01"/></svg>