<svg width="705" height="156" fill="none" xmlns="http://www.w3.org/2000/svg"><path d="M84.79 154.338H58.762V82.275H26.026v72.063H0v-95.9h84.79v95.9zm36-95.9v52.883h.273l45.204-52.883h20.272v95.9h-26.026v-52.883h-.274l-45.202 52.883H94.763v-95.9h26.027zm135.4 95.9l-33.65-44.389v44.389h-26.026v-95.9h26.026v42.196l32.327-42.196h33.696l-37.669 45.62 40.575 50.28H256.19zM383.997 0v95.9h-26.026V58.635h-32.738V95.9h-26.026V0h26.026v34.797h32.738V0h26.026zm36.001 0v52.883h.274L465.474 0h20.274v95.9h-26.027V43.018h-.273L414.245 95.9h-20.273V0h26.026zm135.401 95.9L521.75 51.512V95.9h-26.026V0h26.026v42.196L554.076 0h33.697l-37.669 45.62 40.575 50.28h-35.28z" fill="#FFED00"/><path fill-rule="evenodd" clip-rule="evenodd" d="M602.644 150.793h20.096v4.261h-26.697v-3.697l15.011-15.422c2.561-2.632 6.332-7.048 6.332-10.964 0-2.259-.624-4.313-2.323-5.859-1.665-1.514-3.677-2.137-5.903-2.137-4.248 0-7.226 1.896-9.037 5.738l-.311.657-3.738-2.242.267-.546c1.197-2.432 2.914-4.436 5.239-5.839 2.318-1.4 4.877-2.029 7.58-2.029 3.364 0 6.356 1.056 8.886 3.279 2.671 2.347 3.772 5.461 3.772 8.978 0 2.541-.767 4.902-2.087 7.065-1.552 2.537-3.586 4.882-5.656 7.01l-11.431 11.747zm51.242-1.039c-2.827 4.017-6.779 5.934-11.671 5.934-4.894 0-8.845-1.917-11.672-5.934-3.162-4.49-4.1-10.168-4.1-15.553 0-5.385.938-11.061 4.1-15.552 2.827-4.016 6.778-5.935 11.672-5.935 4.892 0 8.844 1.919 11.671 5.935 3.161 4.491 4.101 10.166 4.101 15.552 0 5.387-.94 11.063-4.101 15.553zm14.345 1.039h20.097v4.261h-26.697v-3.697l15.01-15.422c2.563-2.632 6.333-7.048 6.333-10.964 0-2.259-.624-4.313-2.323-5.859-1.665-1.514-3.677-2.137-5.903-2.137-4.248 0-7.226 1.896-9.037 5.738l-.311.657-3.738-2.242.267-.546c1.197-2.432 2.914-4.436 5.239-5.839 2.318-1.4 4.877-2.029 7.58-2.029 3.364 0 6.355 1.056 8.886 3.279 2.671 2.347 3.772 5.461 3.772 8.978 0 2.541-.767 4.902-2.087 7.065-1.552 2.537-3.587 4.882-5.656 7.01l-11.432 11.747zm32.395-32.541l-9.136 2.877-1.103-3.906 11.248-3.873H705v41.704h-4.374v-36.802zm-66.69 28.764c1.987 2.947 4.722 4.413 8.279 4.413 3.555 0 6.29-1.466 8.279-4.413 2.454-3.633 3.061-8.534 3.061-12.815 0-4.282-.607-9.181-3.061-12.813-1.989-2.948-4.724-4.413-8.279-4.413-3.557 0-6.292 1.465-8.279 4.413-2.452 3.632-3.06 8.531-3.06 12.813 0 4.281.608 9.182 3.06 12.815z" fill="#FFED00"/><path d="M596.7 154.394v-2.769l14.823-15.23c4.346-4.5 6.518-8.308 6.518-11.422 0-2.693-.846-4.808-2.538-6.346-1.691-1.539-3.807-2.308-6.345-2.308-4.498 0-7.709 2.039-9.632 6.115l-2.595-1.558c1.191-2.422 2.855-4.278 4.989-5.567 2.134-1.288 4.547-1.932 7.238-1.932 3.27 0 6.086 1.038 8.451 3.115 2.364 2.077 3.547 4.904 3.547 8.481 0 2.307-.663 4.547-1.99 6.72-1.326 2.173-3.182 4.471-5.566 6.894l-12.516 12.865h20.995v2.942H596.7zm56.641-5.019c-2.654 3.769-6.364 5.654-11.132 5.654s-8.479-1.885-11.132-5.654c-2.654-3.769-3.981-8.827-3.981-15.172 0-6.346 1.327-11.404 3.981-15.172 2.653-3.77 6.364-5.654 11.132-5.654s8.478 1.884 11.132 5.654c2.653 3.768 3.98 8.826 3.98 15.172 0 6.345-1.327 11.403-3.98 15.172zm-19.957-1.99c2.114 3.134 5.056 4.701 8.825 4.701 3.768 0 6.71-1.567 8.825-4.701 2.115-3.135 3.172-7.528 3.172-13.182 0-5.654-1.057-10.048-3.172-13.182-2.115-3.135-5.057-4.702-8.825-4.702-3.769 0-6.711 1.567-8.825 4.702-2.115 3.134-3.173 7.528-3.173 13.182 0 5.654 1.058 10.047 3.173 13.182zm28.897 7.009v-2.769l14.824-15.23c4.345-4.5 6.517-8.308 6.517-11.422 0-2.693-.846-4.808-2.538-6.346-1.691-1.539-3.806-2.308-6.344-2.308-4.499 0-7.71 2.039-9.633 6.115l-2.595-1.558c1.192-2.422 2.855-4.278 4.989-5.567 2.134-1.288 4.547-1.932 7.239-1.932 3.269 0 6.085 1.038 8.45 3.115 2.364 2.077 3.547 4.904 3.547 8.481 0 2.307-.663 4.547-1.99 6.72-1.326 2.173-3.182 4.471-5.566 6.894l-12.516 12.865h20.995v2.942h-25.379zm39.452-40.383h2.596v40.383h-3.057v-37.037l-9.344 2.942-.75-2.653 10.555-3.635z" fill="#FFED00"/></svg>